HIERARCHY
ROOT Hips
{
 OFFSET 0.000000 0.000000 0.000000
 CHANNELS 6 Xposition Yposition Zposition Yrotation Xrotation Zrotation
 JOINT Chest
 {
  OFFSET 0.000000 9.585900 0.002600
  CHANNELS 3 Yrotation Xrotation Zrotation
  JOINT Chest2
  {
   OFFSET 0.000000 9.601200 -0.005300
   CHANNELS 3 Yrotation Xrotation Zrotation
   JOINT Chest3
   {
    OFFSET 0.000000 9.561800 0.000000
    CHANNELS 3 Yrotation Xrotation Zrotation
    JOINT Chest4
    {
     OFFSET 0.000000 9.552100 0.000000
     CHANNELS 3 Yrotation Xrotation Zrotation
     JOINT Neck
     {
      OFFSET 0.000000 14.453000 0.000000
      CHANNELS 3 Yrotation Xrotation Zrotation
      JOINT Head
      {
       OFFSET 0.000000 8.936500 -0.011300
       CHANNELS 3 Yrotation Xrotation Zrotation
       End Site
       {
        OFFSET 0.000000 17.073600 -0.006000
       }
      }
     }
     JOINT RightCollar
     {
      OFFSET -2.921100 9.558500 0.000000
      CHANNELS 3 Yrotation Xrotation Zrotation
      JOINT RightShoulder
      {
       OFFSET -13.519700 0.000000 0.000000
       CHANNELS 3 Yrotation Xrotation Zrotation
       JOINT RightElbow
       {
        OFFSET 0.000000 -29.696600 0.000000
        CHANNELS 3 Yrotation Xrotation Zrotation
        JOINT RightWrist
        {
         OFFSET 0.000000 -24.004700 0.000000
         CHANNELS 3 Yrotation Xrotation Zrotation
         End Site
         {
          OFFSET 0.000000 -17.728500 0.000000
         }
        }
       }
      }
     }
     JOINT LeftCollar
     {
      OFFSET 2.921100 9.558500 0.000000
      CHANNELS 3 Yrotation Xrotation Zrotation
      JOINT LeftShoulder
      {
       OFFSET 13.519700 0.000000 0.000000
       CHANNELS 3 Yrotation Xrotation Zrotation
       JOINT LeftElbow
       {
        OFFSET 0.000000 -29.696600 0.000000
        CHANNELS 3 Yrotation Xrotation Zrotation
        JOINT LeftWrist
        {
         OFFSET 0.000000 -24.004700 0.000000
         CHANNELS 3 Yrotation Xrotation Zrotation
         End Site
         {
          OFFSET 0.000000 -17.728500 0.000000
         }
        }
       }
      }
     }
    }
   }
  }
 }
 JOINT RightHip
 {
  OFFSET -7.771700 -0.012900 -0.001300
  CHANNELS 3 Yrotation Xrotation Zrotation
  JOINT RightKnee
  {
   OFFSET 0.000000 -40.869800 0.001200
   CHANNELS 3 Yrotation Xrotation Zrotation
   JOINT RightAnkle
   {
    OFFSET 0.000000 -39.717900 0.002100
    CHANNELS 3 Yrotation Xrotation Zrotation
    JOINT RightToe
    {
     OFFSET 0.000000 -4.965400 11.033500
     CHANNELS 3 Yrotation Xrotation Zrotation
     End Site
     {
      OFFSET 0.000000 -1.423100 5.872300
     }
    }
   }
  }
 }
 JOINT LeftHip
 {
  OFFSET 7.771700 -0.012900 -0.001300
  CHANNELS 3 Yrotation Xrotation Zrotation
  JOINT LeftKnee
  {
   OFFSET 0.000000 -40.869800 0.001200
   CHANNELS 3 Yrotation Xrotation Zrotation
   JOINT LeftAnkle
   {
    OFFSET 0.000000 -39.717900 0.002100
    CHANNELS 3 Yrotation Xrotation Zrotation
    JOINT LeftToe
    {
     OFFSET 0.000000 -4.965400 11.033500
     CHANNELS 3 Yrotation Xrotation Zrotation
     End Site
     {
      OFFSET 0.000000 -1.423100 5.872300
     }
    }
   }
  }
 }
}
MOTION
Frames: 9
Frame Time: 0.008333
-6.019826 54.233785 29.237179 170.987166 -39.540865 -4.039885 3.669892 21.190035 3.046780 0.427310 2.865093 0.312590 0.708062 4.650807 0.513413 3.058908 18.045825 2.409292 1.699751 15.705063 -1.194744 3.628313 -6.671449 -2.890394 -3.502910 0.886473 -1.142978 -4.752548 -1.249388 3.274098 -115.014185 -75.608979 131.849165 0.421070 6.020010 -2.814098 -3.375244 0.920303 -0.380426 9.645302 -0.255627 2.656316 129.990395 -74.727897 -143.519433 -6.144743 1.770050 5.118903 -2.799194 -41.851956 5.476544 -121.803889 85.061661 -117.669769 0.180721 -9.860819 -0.109701 0.036443 1.837489 1.216658 -2.509191 -37.817863 7.467017 72.180151 82.956986 62.620488 -4.235486 -11.552576 9.372183 0.015278 -0.038048 0.061792
-6.005852 54.229072 29.271840 170.957563 -39.505267 -4.000513 3.682779 21.193911 3.042353 0.425459 2.869558 0.313301 0.701659 4.671533 0.521537 3.040942 18.062419 2.409260 1.695946 15.694342 -1.208874 3.602575 -6.610035 -2.873246 -3.520613 0.905898 -1.135107 -4.734513 -1.317069 3.246405 -114.845630 -75.605206 131.668193 0.426282 6.049101 -2.814594 -3.368240 0.908733 -0.407371 9.647338 -0.271016 2.643964 130.012482 -74.692627 -143.538156 -6.102177 1.867599 5.110941 -2.756037 -41.716970 5.390366 -121.578805 85.275059 -117.292737 0.238573 -10.179793 -0.636473 0.062023 1.686426 1.254670 -2.424095 -37.876513 7.431374 72.079254 82.928486 62.553950 -4.242979 -11.519950 9.372616 0.005740 -0.041610 0.049161
-5.991179 54.222536 29.304920 170.932846 -39.471542 -3.951264 3.697445 21.193737 3.023411 0.423919 2.873299 0.314374 0.693093 4.658503 0.514821 3.038546 18.091355 2.422912 1.684112 15.704396 -1.210760 3.575239 -6.572426 -2.864338 -3.544000 0.925844 -1.133354 -4.754785 -1.290006 3.255566 -114.962602 -75.590334 131.818151 0.408639 6.097099 -2.816696 -3.378623 0.980627 -0.399075 9.650955 -0.338946 2.604072 129.391674 -74.693499 -142.923605 -6.179822 1.838977 5.111657 -2.792090 -41.672270 5.390917 -121.301408 85.332395 -116.984115 0.318648 -10.341292 -1.018317 0.074531 1.448154 1.225373 -2.325528 -37.935047 7.372802 71.977862 82.902900 62.490426 -4.252102 -11.486428 9.383925 -0.004532 -0.046305 0.029641
-5.975080 54.211761 29.338735 170.925733 -39.419971 -3.913899 3.698741 21.164517 2.999643 0.418692 2.868625 0.311650 0.689763 4.662766 0.516015 3.044339 18.114545 2.437729 1.666521 15.716396 -1.211274 3.542219 -6.550839 -2.858493 -3.576039 0.940877 -1.139866 -4.778982 -1.239378 3.283568 -115.064928 -75.585250 131.942884 0.421441 6.117343 -2.799859 -3.391835 0.990069 -0.401378 9.649164 -0.364690 2.585271 128.980557 -74.703612 -142.510367 -6.210935 1.860422 5.124037 -2.942451 -41.716224 5.503501 -121.304688 85.321305 -117.079139 0.315220 -10.377575 -1.239815 0.118506 1.164606 1.126241 -2.245048 -38.008150 7.319715 71.886893 82.880407 62.430224 -4.232345 -11.455708 9.394149 -0.045311 -0.056308 0.010804
-5.957559 54.200083 29.368283 170.938145 -39.384583 -3.893032 3.679862 21.137961 2.971593 0.422734 2.876795 0.315650 0.708578 4.696873 0.532060 3.030023 18.104130 2.439761 1.642679 15.705035 -1.222564 3.513157 -6.523039 -2.846531 -3.614567 0.959438 -1.150770 -4.794483 -1.202657 3.312039 -115.117192 -75.595510 131.992730 0.454394 6.129426 -2.784009 -3.411270 0.987091 -0.404875 9.634164 -0.332226 2.585614 128.792292 -74.674198 -142.310522 -6.220225 1.895637 5.150914 -3.134568 -41.808400 5.678887 -121.433817 85.225663 -117.355677 0.311304 -10.343830 -1.292528 0.152413 0.894779 0.939281 -2.193724 -38.068002 7.277668 71.875299 82.870539 62.443444 -4.220710 -11.449867 9.403299 -0.070076 -0.046943 -0.006161
-5.935019 54.185557 29.396347 170.896543 -39.348860 -3.873497 3.738458 21.117435 2.994325 0.421765 2.880514 0.317878 0.695537 4.688478 0.529066 3.042403 18.120677 2.461997 1.614428 15.698604 -1.234504 3.502924 -6.529800 -2.850395 -3.655315 0.980919 -1.162884 -4.811580 -1.157934 3.337777 -115.390536 -75.592625 132.295951 0.488679 6.178514 -2.826636 -3.443906 1.072951 -0.365455 9.624718 -0.370574 2.531508 128.644377 -74.636456 -142.150169 -6.225479 1.926259 5.182099 -3.256053 -41.971120 5.891879 -121.419297 84.988613 -117.464667 0.405866 -10.199739 -1.374421 0.145411 0.589628 0.850057 -2.097321 -38.143832 7.282541 71.896204 82.904493 62.520912 -4.191519 -11.427688 9.399519 -0.086354 -0.065901 -0.015036
-5.920239 54.172904 29.413305 170.930128 -39.354463 -3.858290 3.776176 21.134835 2.994692 0.418836 2.889047 0.324757 0.655194 4.689348 0.527550 3.035466 18.124900 2.480094 1.591980 15.714667 -1.235324 3.432528 -6.477219 -2.820125 -3.687510 0.979704 -1.179773 -4.820456 -1.133620 3.348966 -115.557054 -75.644014 132.438041 0.512336 6.193156 -2.866306 -3.473271 1.123290 -0.340266 9.607358 -0.384742 2.492431 128.516364 -74.601210 -142.006904 -6.227770 1.958975 5.212144 -3.308037 -42.143060 5.996161 -121.416651 84.623125 -117.523559 0.539539 -9.999390 -1.320479 0.155354 0.268234 0.683437 -2.079852 -38.151915 7.251148 71.914502 82.899587 62.526079 -4.156876 -11.439240 9.399200 -0.140938 -0.050302 -0.014544
-5.910954 54.158509 29.424498 170.966080 -39.364123 -3.823224 3.771136 21.152373 2.954946 0.396688 2.887980 0.323567 0.672103 4.697450 0.536168 3.014559 18.131464 2.493945 1.578781 15.728087 -1.232713 3.382048 -6.443279 -2.804976 -3.709634 0.984191 -1.192916 -4.849433 -1.030468 3.369596 -116.107823 -75.683576 132.999711 0.531585 6.199647 -2.931335 -3.496611 1.158006 -0.321974 9.586354 -0.381193 2.468611 128.444926 -74.559927 -141.916726 -6.234011 1.979314 5.234598 -3.313468 -42.308723 6.032541 -121.474397 84.237817 -117.600475 0.655090 -9.846993 -1.248722 0.194272 0.017516 0.526428 -2.048669 -38.156137 7.199209 71.930651 82.908547 62.518232 -4.117785 -11.445893 9.430625 -0.200198 -0.043364 -0.036930
-5.904924 54.142936 29.430200 171.058543 -39.373679 -3.817291 3.723087 21.178611 2.912571 0.371419 2.882134 0.319291 0.713730 4.718585 0.556546 2.966304 18.128056 2.506627 1.559816 15.741593 -1.237524 3.348032 -6.414719 -2.799818 -3.723945 1.049867 -1.181308 -4.879149 -0.999617 3.352121 -116.699894 -75.704323 133.609301 0.560217 6.204060 -3.016539 -3.524201 1.179139 -0.317519 9.576047 -0.384739 2.446646 128.447977 -74.526698 -141.904211 -6.225182 2.012799 5.235348 -3.390628 -42.430894 6.042028 -121.700871 83.940214 -117.844694 0.788333 -9.810841 -1.199491 0.177843 -0.098666 0.385889 -2.056626 -38.158384 7.183742 71.883285 82.961922 62.385640 -4.095652 -11.445217 9.520579 -0.260197 -0.043531 -0.049896
